<?xml version="1.0" standalone="no"?>
<!DOCTYPE svg PUBLIC "-//W3C//DTD SVG 20010904//EN"
 "http://www.w3.org/TR/2001/REC-SVG-20010904/DTD/svg10.dtd">
<svg version="1.0" xmlns="http://www.w3.org/2000/svg"
 width="280.000000pt" height="280.000000pt" viewBox="0 0 280.000000 280.000000"
 preserveAspectRatio="xMidYMid meet">
<metadata>
Created by potrace 1.14, written by Peter Selinger 2001-2017
</metadata>
<g transform="translate(0.000000,280.000000) scale(0.100000,-0.100000)"
fill="#000000" stroke="none">
<path d="M2550 2734 c-218 -28 -260 -40 -277 -74 -9 -18 -13 -97 -12 -295 0
-148 2 -265 4 -260 2 6 7 37 11 70 16 135 23 -9 20 -404 -4 -542 -6 -580 -16
-556 -5 11 -9 37 -9 58 -1 21 -7 50 -15 65 -9 18 -14 64 -15 132 -3 297 -56
600 -128 730 -23 43 -24 48 -13 107 18 94 7 149 -41 196 l-39 40 -78 -5 c-51
-3 -99 -14 -143 -32 l-67 -26 -91 26 c-83 24 -102 26 -194 20 -158 -11 -168
-10 -231 13 -40 14 -83 21 -131 21 -51 0 -76 4 -85 15 -17 21 -115 55 -153 54
-21 -1 -25 -3 -12 -6 29 -7 43 -23 19 -23 -10 0 -30 -3 -43 -7 -20 -5 -23 -3
-18 12 6 15 3 16 -20 10 -69 -16 -93 -62 -93 -174 0 -34 -5 -71 -10 -82 -6
-10 -34 -31 -63 -45 -108 -55 -230 -169 -276 -261 -32 -64 -26 -67 34 -18 31
25 57 45 59 45 2 0 -13 -33 -33 -72 -31 -64 -36 -84 -39 -159 -4 -95 11 -191
33 -209 11 -10 15 -6 21 17 4 15 18 53 32 83 20 47 25 52 32 35 7 -18 8 -19
15 -3 12 30 22 11 29 -54 4 -34 14 -76 23 -92 16 -33 112 -136 126 -136 5 0 6
13 2 30 -4 19 -3 30 4 30 6 0 11 -5 11 -12 0 -6 3 -8 6 -5 4 4 -7 34 -25 67
-28 52 -31 66 -25 105 5 34 13 50 36 66 28 21 30 21 43 3 14 -18 14 -18 15 4
0 29 24 29 85 -3 27 -13 51 -23 53 -21 8 8 -53 47 -89 56 -23 6 -39 17 -39 25
0 27 52 145 61 139 5 -3 9 -12 9 -19 0 -20 51 -125 60 -125 5 0 6 29 3 65 -3
36 -3 65 -1 65 4 0 137 -231 176 -305 9 -17 11 -15 18 20 7 38 -8 210 -22 265
-5 18 6 10 42 -32 26 -32 52 -58 56 -58 17 0 6 -23 -22 -47 -42 -35 -37 -47 7
-17 20 13 43 22 50 20 7 -3 13 -1 13 4 0 17 66 11 123 -10 29 -11 73 -36 96
-56 23 -20 45 -34 48 -30 3 3 1 25 -5 48 -17 68 -23 98 -18 98 2 0 29 -38 60
-84 55 -83 106 -196 106 -236 0 -24 15 -26 24 -4 3 9 9 40 12 70 7 59 12 63
37 36 13 -14 17 -38 17 -90 0 -40 4 -72 8 -72 11 0 37 47 51 92 14 42 54 68
105 68 l31 0 -33 -17 c-54 -30 -93 -73 -86 -95 4 -14 0 -21 -15 -25 -22 -6
-25 -12 -15 -37 9 -23 27 -20 19 3 -4 13 0 20 16 24 16 4 20 11 16 26 -7 28
20 63 46 59 31 -4 35 -51 7 -75 -12 -10 -28 -30 -36 -45 -8 -16 -23 -28 -34
-28 -11 0 -20 -4 -20 -10 0 -5 7 -10 16 -10 22 0 54 19 54 32 0 5 14 26 31 46
31 35 34 58 14 105 -5 12 -3 17 9 17 10 0 23 -15 32 -36 27 -64 -6 -128 -103
-200 -55 -42 -80 -46 -104 -18 -17 21 -27 17 -45 -18 -9 -18 -32 -52 -50 -75
-36 -44 -40 -53 -24 -53 5 0 23 18 39 41 l30 40 5 -33 c3 -18 8 -60 11 -93 8
-70 33 -192 46 -217 5 -10 15 -15 22 -13 6 2 25 -6 40 -18 l28 -23 -43 -31
c-49 -35 -268 -246 -268 -258 0 -4 55 46 123 111 68 66 140 130 160 144 20 14
39 31 42 38 2 6 -22 39 -54 72 -33 33 -56 60 -52 60 4 0 32 -18 62 -40 30 -22
92 -58 139 -80 l86 -41 11 -72 c15 -95 48 -180 85 -223 17 -19 28 -37 26 -40
-3 -2 -38 -11 -79 -20 -85 -17 -298 -83 -379 -116 -40 -16 -71 -40 -109 -81
-70 -79 -169 -212 -194 -264 -12 -24 -24 -43 -27 -43 -3 0 -23 22 -43 50 -21
27 -42 50 -47 50 -42 0 59 93 210 195 28 19 49 35 46 35 -27 0 -200 -95 -238
-131 -30 -28 -58 -45 -75 -47 -25 -1 -34 7 -75 71 -25 39 -70 101 -99 137 -57
71 -116 186 -126 243 l-6 37 64 30 c35 16 69 30 76 30 6 0 24 11 40 24 31 26
179 126 186 126 3 0 7 -10 10 -22 4 -15 0 -30 -13 -43 -10 -11 -23 -32 -29
-47 -10 -28 -41 -203 -41 -235 0 -33 13 -3 16 39 4 45 37 154 62 203 14 28 16
29 24 10 7 -17 7 -16 3 5 -3 14 -8 52 -11 86 l-7 60 83 53 c45 28 80 55 77 58
-4 3 -21 -4 -39 -15 -179 -111 -281 -158 -322 -148 -54 13 -338 325 -361 395
-15 45 -15 45 -11 9 3 -21 18 -57 34 -81 27 -38 29 -48 22 -85 -9 -51 3 -179
23 -244 8 -26 27 -68 41 -94 14 -25 26 -54 26 -63 0 -43 -24 -92 -65 -133 -39
-38 -47 -52 -55 -104 -6 -32 -10 -98 -10 -146 0 -48 -5 -99 -11 -115 -22 -57
-57 -203 -49 -203 4 0 11 16 14 35 6 31 61 208 81 260 l8 20 -16 -20 c-16 -19
-16 -18 -16 25 0 95 18 193 41 217 26 27 38 29 38 6 0 -10 15 -62 34 -115 l33
-96 -19 -104 c-11 -57 -22 -131 -25 -165 l-6 -63 172 0 c163 0 171 1 171 19 0
31 19 35 32 7 l11 -26 338 0 339 0 11 46 c10 38 30 64 123 159 71 71 142 133
196 168 83 54 206 117 228 117 6 0 19 -24 29 -52 15 -44 18 -86 18 -246 0
-111 4 -191 9 -189 14 5 16 30 16 154 0 64 4 114 10 118 14 9 12 25 -2 20 -21
-8 -21 65 -1 89 17 19 17 20 1 7 -15 -11 -18 -11 -18 1 0 8 6 20 13 27 10 11
10 14 0 18 -18 6 -16 42 2 49 10 4 13 14 9 29 -3 13 -1 32 5 43 7 13 7 22 -1
30 -9 9 -9 12 0 12 7 0 12 12 12 26 0 14 4 23 10 19 6 -3 10 -1 10 4 0 6 -6
11 -14 11 -9 0 -12 7 -9 20 3 11 9 18 13 15 4 -3 10 2 14 10 3 8 1 17 -4 20
-4 3 -11 -1 -13 -7 -3 -7 -6 -3 -6 10 -1 12 5 22 12 22 8 0 8 3 -2 9 -19 12
-22 51 -4 51 12 0 11 3 -1 16 -18 18 -20 30 -7 39 5 3 11 -3 13 -12 3 -11 6
-4 9 15 4 25 2 32 -8 28 -16 -7 -17 6 -1 22 9 9 9 12 -1 12 -9 0 -10 4 -3 13
10 13 28 122 24 147 -2 8 -3 50 -3 93 0 52 -4 77 -12 77 -7 0 -18 4 -26 9 -12
8 -12 12 2 26 10 9 17 24 16 33 0 11 -2 12 -6 5 -6 -17 -20 -16 -27 2 -3 8 0
14 6 12 7 -1 13 4 14 11 1 6 2 15 4 20 1 4 3 18 3 32 1 14 6 25 12 25 5 0 9
-7 7 -15 -3 -13 -2 -13 7 0 6 8 8 28 5 44 -2 15 1 35 8 44 7 9 8 13 2 9 -8 -4
-11 6 -10 33 0 28 5 39 13 36 7 -3 15 -1 18 4 4 6 1 10 -6 10 -7 0 -9 3 -6 7
4 3 16 -2 26 -11 19 -17 19 -17 14 3 -4 15 -1 21 10 21 9 0 18 -10 20 -22 4
-24 11 41 7 75 -1 11 7 21 18 24 17 4 20 12 17 51 -2 26 -3 50 -4 55 -1 4 -8
7 -16 7 -8 0 -15 5 -15 11 0 6 9 9 20 6 17 -4 20 -1 18 24 -3 33 -12 37 -27
12 -8 -14 -10 -5 -8 37 1 30 7 54 12 53 6 -1 11 12 12 28 2 29 -11 40 -20 17
-3 -8 -6 -6 -6 5 -1 9 3 17 8 17 14 0 21 29 9 36 -6 4 -8 3 -4 -4 3 -6 2 -13
-3 -16 -5 -3 -11 4 -15 17 -3 12 -1 24 5 25 6 3 6 9 -2 18 -6 7 -9 20 -6 29 4
8 2 17 -3 20 -16 10 -11 25 8 26 10 0 12 3 5 6 -7 2 -13 16 -13 31 0 14 -8 34
-17 45 -17 19 -17 20 0 14 17 -6 23 8 18 43 -1 8 -2 32 -1 52 0 25 -4 37 -15
40 -13 3 -13 6 -1 29 12 23 11 29 -5 50 -22 29 -16 41 17 33 28 -7 33 12 5 21
-13 4 -17 12 -14 25 4 15 1 19 -9 15 -10 -4 -13 2 -12 22 3 43 4 43 12 42 22
-4 33 3 30 19 -3 14 9 18 70 26 l72 9 0 33 c0 41 8 41 -250 8z m-1626 -150 c9
-3 16 -10 16 -15 0 -10 -34 -12 -69 -2 -23 6 -23 7 -5 14 25 10 39 10 58 3z
m1048 -76 c-8 -8 -17 -8 -34 0 -22 10 -21 11 12 11 26 1 31 -2 22 -11z m-87
-7 c-6 -5 -28 -11 -50 -15 -39 -6 -39 -6 -15 8 27 16 81 22 65 7z m755 -145
c0 -3 -4 -8 -10 -11 -5 -3 -10 -1 -10 4 0 6 5 11 10 11 6 0 10 -2 10 -4z
m-1480 -51 c8 -10 9 -15 2 -15 -6 0 -9 -8 -6 -17 4 -11 3 -14 -3 -7 -4 6 -16
13 -25 17 -10 3 -18 11 -18 17 0 6 5 8 10 5 6 -3 10 -1 10 4 0 16 16 13 30 -4z
m-94 -53 c-6 -5 -36 23 -36 34 0 4 9 -1 20 -11 11 -10 18 -20 16 -23z m64 13
c0 -2 -8 -3 -18 -2 -10 0 -19 7 -19 13 0 9 5 10 19 3 10 -5 18 -12 18 -14z
m71 12 c-1 -12 -15 -9 -19 4 -3 6 1 10 8 8 6 -3 11 -8 11 -12z m154 -45 c-6
-6 -34 11 -39 24 -4 11 0 10 18 -3 13 -10 23 -19 21 -21z m-750 19 c3 -5 1
-12 -5 -16 -5 -3 -10 1 -10 9 0 18 6 21 15 7z m507 -23 c-9 -9 -15 -9 -24 1
-11 11 -10 13 5 8 10 -4 17 -2 17 5 0 6 3 8 7 5 4 -4 1 -13 -5 -19z m-547 2
c3 -5 2 -10 -4 -10 -5 0 -13 5 -16 10 -3 6 -2 10 4 10 5 0 13 -4 16 -10z m920
-8 c-3 -3 -11 0 -18 7 -9 10 -8 11 6 5 10 -3 15 -9 12 -12z m1137 -4 c-14 -14
-16 -32 -3 -23 5 3 12 1 15 -3 3 -5 -3 -9 -14 -8 -11 0 -21 5 -22 10 -1 11 25
47 31 41 2 -3 -1 -11 -7 -17z m-1302 -8 c0 -17 -30 -18 -39 -1 -9 16 -7 17 14
13 14 -2 25 -8 25 -12z m25 0 c3 -5 1 -10 -4 -10 -6 0 -11 5 -11 10 0 6 2 10
4 10 3 0 8 -4 11 -10z m-675 -21 c0 -5 -4 -9 -10 -9 -5 0 -10 7 -10 16 0 8 5
12 10 9 6 -3 10 -10 10 -16z m450 11 c0 -5 -7 -7 -15 -4 -8 4 -15 8 -15 10 0
2 7 4 15 4 8 0 15 -4 15 -10z m17 -12 c-3 -8 -6 -5 -6 6 -1 11 2 17 5 13 3 -3
4 -12 1 -19z m-497 -8 c0 -8 -28 -15 -52 -12 -3 1 -11 -5 -18 -13 -6 -7 -18
-11 -26 -8 -8 3 -14 0 -14 -6 0 -6 -5 -11 -10 -11 -7 0 -7 6 0 19 5 11 18 20
28 19 21 0 63 10 70 17 9 8 22 6 22 -5z m1981 -53 c-15 -15 -21 -5 -14 22 5
21 7 21 16 6 6 -11 5 -21 -2 -28z m-1323 -262 c28 -27 50 -50 49 -52 -2 -2
-21 4 -42 13 -22 9 -58 16 -82 17 l-42 0 -16 56 c-9 31 -20 66 -25 79 -20 47
-8 45 48 -9 31 -31 81 -77 110 -104z m-618 -70 c-22 -26 -33 -17 -26 23 14 74
19 80 29 35 7 -31 6 -47 -3 -58z m2000 -51 c0 -8 -5 -12 -10 -9 -6 4 -8 11 -5
16 9 14 15 11 15 -7z m-330 -3 c0 -6 -4 -13 -10 -16 -5 -3 -10 1 -10 9 0 9 5
16 10 16 6 0 10 -4 10 -9z m290 -61 c0 -5 -4 -10 -10 -10 -5 0 -10 5 -10 10 0
6 5 10 10 10 6 0 10 -4 10 -10z m-293 -32 c-3 -8 -6 -5 -6 6 -1 11 2 17 5 13
3 -3 4 -12 1 -19z m3 -32 c0 -3 -4 -8 -10 -11 -5 -3 -10 -1 -10 4 0 6 5 11 10
11 6 0 10 -2 10 -4z m-10 -72 c0 -8 -5 -12 -10 -9 -6 4 -8 11 -5 16 9 14 15
11 15 -7z m0 -61 c0 -7 -4 -13 -10 -13 -5 0 -10 12 -10 28 0 21 2 24 10 12 5
-8 10 -21 10 -27z m210 -8 c0 -8 -4 -15 -10 -15 -5 0 -7 7 -4 15 4 8 8 15 10
15 2 0 4 -7 4 -15z m-210 -35 c0 -5 -4 -10 -10 -10 -5 0 -10 5 -10 10 0 6 5
10 10 10 6 0 10 -4 10 -10z m-9 -73 c-8 -8 -11 -4 -11 14 0 33 14 47 18 19 2
-12 -1 -27 -7 -33z m122 -14 c3 -5 1 -17 -3 -28 -6 -17 -7 -16 -12 8 -5 25 5
37 15 20z m-113 -50 c0 -100 1 -113 12 -107 7 4 8 2 4 -4 -4 -7 -14 -12 -22
-12 -11 0 -14 18 -14 85 0 52 4 85 10 85 6 0 11 -21 10 -47z m37 -3 c-2 -24
-17 -15 -17 11 0 11 4 18 9 14 6 -3 9 -14 8 -25z m127 15 c3 -8 1 -15 -4 -15
-6 0 -10 7 -10 15 0 8 2 15 4 15 2 0 6 -7 10 -15z m-39 -24 c-8 -14 -25 -14
-25 0 0 5 5 7 10 4 6 -3 10 -1 10 6 0 7 3 10 6 6 3 -3 3 -10 -1 -16z m26 -38
c-12 -20 -14 -14 -5 12 4 9 9 14 11 11 3 -2 0 -13 -6 -23z m52 -34 c-4 -15 -8
-17 -14 -8 -8 14 -3 29 11 29 4 0 6 -9 3 -21z m-201 -93 c2 -16 -2 -31 -7 -33
-6 -2 -11 15 -12 38 -2 47 14 42 19 -5z m-118 -480 l58 -35 -55 -27 c-47 -23
-58 -25 -71 -14 -23 18 -73 127 -81 175 l-7 40 48 -52 c27 -29 75 -68 108 -87z
m263 -48 c-3 -8 -6 -5 -6 6 -1 11 2 17 5 13 3 -3 4 -12 1 -19z m-1391 -407
l23 -51 -43 -35 c-24 -19 -46 -35 -49 -35 -3 0 -3 17 0 38 8 54 34 144 40 138
3 -3 16 -28 29 -55z"/>
<path d="M2635 2610 c3 -5 8 -10 11 -10 2 0 4 5 4 10 0 6 -5 10 -11 10 -5 0
-7 -4 -4 -10z"/>
<path d="M2681 2324 c0 -11 3 -14 6 -6 3 7 2 16 -1 19 -3 4 -6 -2 -5 -13z"/>
<path d="M2670 2285 c0 -8 2 -15 4 -15 2 0 6 7 10 15 3 8 1 15 -4 15 -6 0 -10
-7 -10 -15z"/>
<path d="M2687 2244 c-4 -4 -7 -14 -7 -23 0 -11 3 -12 11 -4 6 6 10 16 7 23
-2 6 -7 8 -11 4z"/>
<path d="M2675 1930 c-3 -5 -1 -10 4 -10 6 0 11 5 11 10 0 6 -2 10 -4 10 -3 0
-8 -4 -11 -10z"/>
<path d="M2675 1901 c-3 -6 3 -9 14 -8 11 0 17 5 15 9 -7 11 -22 10 -29 -1z"/>
<path d="M1210 1703 c-32 -10 -60 -27 -60 -35 0 -5 15 -1 33 8 17 10 46 21 62
25 27 6 27 7 5 7 -14 0 -32 -2 -40 -5z"/>
<path d="M805 1678 c-34 -12 -62 -35 -77 -61 -11 -21 -3 -67 11 -67 5 0 7 8 5
18 -3 9 5 32 16 50 17 28 25 33 53 30 27 -2 33 -8 35 -30 3 -28 -12 -39 -21
-15 -3 6 -6 -16 -6 -51 -1 -49 3 -64 15 -69 23 -8 34 14 34 70 0 26 7 58 15
71 15 23 14 25 -11 45 -30 24 -28 23 -69 9z"/>
<path d="M1232 1679 c-19 -6 -36 -19 -41 -32 -14 -35 -2 -40 31 -12 16 14 38
25 49 25 61 0 145 -72 136 -118 l-5 -24 21 21 21 21 -30 42 c-32 45 -95 88
-129 87 -11 0 -35 -5 -53 -10z"/>
<path d="M2670 1640 c0 -5 5 -10 10 -10 6 0 10 5 10 10 0 6 -4 10 -10 10 -5 0
-10 -4 -10 -10z"/>
<path d="M1248 1618 c17 -17 15 -48 -2 -48 -8 0 -17 6 -19 13 -3 6 -6 -9 -6
-34 -1 -31 5 -54 17 -69 l17 -22 19 21 c23 25 32 100 17 130 -7 11 -21 21 -33
21 -17 0 -19 -3 -10 -12z"/>
<path d="M2587 1558 c-3 -9 3 -14 14 -14 11 0 18 5 16 10 -5 16 -24 18 -30 4z"/>
<path d="M683 1410 c0 -30 2 -43 4 -27 2 15 2 39 0 55 -2 15 -4 2 -4 -28z"/>
<path d="M818 1443 c6 -2 18 -2 25 0 6 3 1 5 -13 5 -14 0 -19 -2 -12 -5z"/>
<path d="M860 1363 c0 -10 4 -24 9 -31 5 -9 8 -3 7 17 -1 32 -16 45 -16 14z"/>
<path d="M958 1153 c6 -2 18 -2 25 0 6 3 1 5 -13 5 -14 0 -19 -2 -12 -5z"/>
<path d="M2570 1111 c0 -5 5 -13 10 -16 6 -3 10 -2 10 4 0 5 -4 13 -10 16 -5
3 -10 2 -10 -4z"/>
<path d="M2575 1060 c-3 -5 -1 -10 4 -10 6 0 11 5 11 10 0 6 -2 10 -4 10 -3 0
-8 -4 -11 -10z"/>
<path d="M0 530 l0 -530 188 1 c103 1 179 3 170 6 -10 2 -18 9 -18 15 0 5 -7
8 -15 4 -10 -4 -15 1 -15 15 0 15 5 19 19 14 11 -3 22 -1 26 5 3 5 -1 10 -10
10 -10 0 -15 7 -13 18 2 11 -3 17 -14 16 -17 -2 -15 18 5 44 5 6 6 13 1 13
-42 6 -66 20 -60 35 3 8 -1 14 -9 14 -8 0 -15 7 -15 16 0 14 3 14 15 4 12 -10
15 -10 15 1 0 22 -16 41 -47 56 -15 7 -20 11 -10 8 24 -6 22 14 -3 23 -18 7
-19 9 -5 36 18 34 19 39 3 34 -17 -6 -41 19 -33 32 4 6 2 17 -4 24 -7 8 -10
18 -9 24 2 5 -10 21 -25 36 -16 15 -26 32 -24 39 4 9 6 9 6 0 1 -7 8 -13 16
-13 8 0 15 -7 15 -15 0 -8 5 -15 10 -15 6 0 10 9 10 20 0 11 -6 20 -14 20 -8
0 -20 14 -28 30 -7 16 -17 30 -22 30 -4 0 -5 11 -2 25 4 14 2 25 -3 25 -5 0
-11 9 -14 21 -4 14 1 23 16 29 l22 9 -22 0 c-13 1 -23 5 -23 10 0 5 -7 17 -16
25 -8 9 -11 16 -6 16 13 0 21 59 9 63 -5 1 -9 15 -9 30 0 15 -4 27 -9 27 -5 0
-9 9 -9 20 0 12 -6 33 -13 48 -7 15 -13 46 -12 70 1 23 -2 42 -7 42 -4 0 -8
-238 -8 -530z m55 280 c3 -5 -1 -10 -10 -10 -9 0 -13 5 -10 10 3 6 8 10 10 10
2 0 7 -4 10 -10z m135 -520 c0 -5 -2 -10 -4 -10 -3 0 -8 5 -11 10 -3 6 -1 10
4 10 6 0 11 -4 11 -10z m30 -41 c0 -6 -4 -7 -10 -4 -5 3 -10 11 -10 16 0 6 5
7 10 4 6 -3 10 -11 10 -16z m85 -109 c-3 -5 -10 -10 -16 -10 -5 0 -9 5 -9 10
0 6 7 10 16 10 8 0 12 -4 9 -10z"/>
<path d="M2616 1048 c4 -11 1 -18 -6 -18 -6 0 -8 -5 -5 -10 4 -6 10 -8 15 -5
5 3 11 -5 13 -17 4 -21 4 -21 6 3 0 14 -6 34 -14 45 -13 16 -14 16 -9 2z"/>
<path d="M1415 521 c-6 -5 -19 -11 -30 -13 -17 -3 -18 -5 -3 -10 10 -4 23 1
34 13 17 19 16 27 -1 10z"/>
<path d="M1200 513 c0 -5 11 -20 25 -33 14 -13 25 -19 25 -13 0 5 -11 20 -25
33 -14 13 -25 19 -25 13z"/>
<path d="M1314 474 c-18 -14 -18 -15 4 -4 12 6 22 13 22 15 0 8 -5 6 -26 -11z"/>
<path d="M1352 436 c-18 -24 -32 -48 -32 -52 0 -6 45 52 64 84 17 29 -3 9 -32
-32z"/>
<path d="M2525 380 c-3 -5 -1 -10 4 -10 6 0 11 5 11 10 0 6 -2 10 -4 10 -3 0
-8 -4 -11 -10z"/>
<path d="M1225 239 c-4 -6 -5 -12 -2 -15 2 -3 7 2 10 11 7 17 1 20 -8 4z"/>
<path d="M300 190 c0 -5 5 -10 11 -10 5 0 7 5 4 10 -3 6 -8 10 -11 10 -2 0 -4
-4 -4 -10z"/>
<path d="M2018 153 c-44 -66 -89 -145 -86 -149 3 -2 21 25 41 59 20 34 46 77
58 95 11 17 19 32 16 32 -2 0 -16 -17 -29 -37z"/>
</g>
</svg>
